<svg xmlns="http://www.w3.org/2000/svg" xmlns:xlink="http://www.w3.org/1999/xlink" width="89" height="89" viewBox="0 0 89 89">
  <defs>
    <filter id="Path_338" x="0" y="0" width="89" height="89" filterUnits="userSpaceOnUse">
      <feOffset dy="8" input="SourceAlpha"/>
      <feGaussianBlur stdDeviation="3.5" result="blur"/>
      <feFlood flood-color="#1f62af" flood-opacity="0.271"/>
      <feComposite operator="in" in2="blur"/>
      <feComposite in="SourceGraphic"/>
    </filter>
  </defs>
  <g id="Group_545" data-name="Group 545" transform="translate(-973.5 -399.5)">
    <g id="Group_421" data-name="Group 421" transform="translate(-7815 -12995)">
      <g transform="matrix(1, 0, 0, 1, 8788.5, 13394.5)" filter="url(#Path_338)">
        <path id="Path_338-2" data-name="Path 338" d="M34,0A34,34,0,1,1,0,34,34,34,0,0,1,34,0Z" transform="translate(10.5 2.5)" fill="#1427b2"/>
      </g>
    </g>
    <g id="settings_1_" data-name="settings (1)" transform="translate(981.725 399.722)">
      <g id="Group_528" data-name="Group 528" transform="translate(21.275 21.278)">
        <path id="Path_400" data-name="Path 400" d="M131.438,122.865a8.574,8.574,0,1,0,8.574,8.574A8.584,8.584,0,0,0,131.438,122.865Zm0,16.376a7.8,7.8,0,1,1,7.8-7.8A7.8,7.8,0,0,1,131.438,139.241Z" transform="translate(-116.321 -116.322)" fill="#66e5a6" stroke="#66e5a6" stroke-width="1"/>
        <path id="Path_403" data-name="Path 403" d="M51.184,34.11l-3.438-.546a11.6,11.6,0,0,0-1.324-3.194l2.046-2.818a.386.386,0,0,0-.039-.5L45.735,24.36a.386.386,0,0,0-.5-.039l-2.818,2.045a11.6,11.6,0,0,0-3.194-1.324L38.677,21.6a.386.386,0,0,0-.382-.326H34.489a.386.386,0,0,0-.382.326l-.546,3.438a11.6,11.6,0,0,0-3.194,1.324L27.549,24.32a.386.386,0,0,0-.5.039l-2.692,2.692a.386.386,0,0,0-.039.5l2.046,2.818a11.6,11.6,0,0,0-1.324,3.194L21.6,34.11a.386.386,0,0,0-.326.382V38.3a.386.386,0,0,0,.326.382l3.438.546a11.6,11.6,0,0,0,1.324,3.194l-2.045,2.818a.386.386,0,0,0,.039.5l2.692,2.692a.386.386,0,0,0,.5.039l2.818-2.045a11.6,11.6,0,0,0,3.194,1.324l.546,3.438a.386.386,0,0,0,.382.326H38.3a.386.386,0,0,0,.382-.326l.546-3.438a11.6,11.6,0,0,0,3.194-1.324l2.818,2.045a.386.386,0,0,0,.5-.039l2.692-2.692a.386.386,0,0,0,.039-.5L46.422,42.42a11.6,11.6,0,0,0,1.324-3.194l3.438-.546a.386.386,0,0,0,.326-.382V34.492a.386.386,0,0,0-.326-.382Zm-.447,3.859-3.368.535a.386.386,0,0,0-.316.3,10.836,10.836,0,0,1-1.422,3.43.386.386,0,0,0,.014.434l2,2.761L45.422,47.65l-2.761-2a.386.386,0,0,0-.434-.014,10.837,10.837,0,0,1-3.43,1.422.386.386,0,0,0-.3.316l-.535,3.368H34.819l-.535-3.368a.386.386,0,0,0-.3-.316,10.837,10.837,0,0,1-3.43-1.422.386.386,0,0,0-.434.014l-2.761,2-2.225-2.225,2-2.761a.386.386,0,0,0,.014-.434,10.837,10.837,0,0,1-1.422-3.43.386.386,0,0,0-.316-.3l-3.368-.535V34.821l3.368-.535a.386.386,0,0,0,.316-.3,10.837,10.837,0,0,1,1.422-3.43.386.386,0,0,0-.014-.434l-2-2.761,2.225-2.225,2.761,2a.386.386,0,0,0,.434.014,10.837,10.837,0,0,1,3.43-1.422.386.386,0,0,0,.3-.316l.535-3.368h3.147l.535,3.368a.386.386,0,0,0,.3.316,10.837,10.837,0,0,1,3.43,1.422.386.386,0,0,0,.434-.014l2.761-2,2.225,2.225-2,2.761a.386.386,0,0,0-.014.434,10.836,10.836,0,0,1,1.422,3.43.386.386,0,0,0,.316.3l3.368.535Z" transform="translate(-21.275 -21.278)" fill="#66e5a6" stroke="#66e5a6" stroke-width="1"/>
      </g>
      <path id="Path_405" data-name="Path 405" d="M212.927,209.963a2.965,2.965,0,1,0,2.965,2.965A2.965,2.965,0,0,0,212.927,209.963Zm0,5.157a2.192,2.192,0,1,1,2.192-2.192A2.192,2.192,0,0,1,212.927,215.12Z" transform="translate(-176.535 -176.533)" fill="#c6ffe8" stroke="#66e5a6" stroke-width="1"/>
    </g>
  </g>
</svg>
